<svg width="58" height="62" viewBox="0 0 58 62" fill="none" xmlns="http://www.w3.org/2000/svg">
<g clip-path="url(#clip0_1_319)">
<path d="M26.6957 0C17.8723 0 10.6957 7.17663 10.6957 16C10.6957 24.8234 17.8723 32 26.6957 32C35.5163 32 42.6957 24.8234 42.6957 16C42.6957 7.17663 35.5163 0 26.6957 0ZM32.712 19.1549L27.1468 24.7201C27.0843 24.7853 27.0055 24.8342 26.9212 24.8696C26.837 24.9049 26.7446 24.9239 26.6549 24.9239C26.5652 24.9239 26.4729 24.9049 26.3886 24.8696C26.3044 24.8342 26.2283 24.7853 26.1631 24.7201L20.5979 19.1549C20.3261 18.8832 20.3261 18.4429 20.5979 18.1712C20.8696 17.8995 21.3098 17.8995 21.5815 18.1712L25.9593 22.5489V7.53261C25.9593 7.14946 26.2718 6.83696 26.6549 6.83696C27.0381 6.83696 27.3506 7.14946 27.3506 7.53261V22.5489L31.7283 18.1712C32 17.8995 32.4402 17.8995 32.712 18.1712C32.9837 18.4429 32.9837 18.8832 32.712 19.1549Z" fill="white"/>
</g>
<path d="M8.71191 56.3047C8.71191 56.0557 8.67285 55.8359 8.59473 55.6455C8.52148 55.4502 8.38965 55.2744 8.19922 55.1182C8.01367 54.9619 7.75488 54.813 7.42285 54.6714C7.0957 54.5298 6.68066 54.3857 6.17773 54.2393C5.65039 54.083 5.17432 53.9097 4.74951 53.7192C4.32471 53.5239 3.96094 53.3018 3.6582 53.0527C3.35547 52.8037 3.12354 52.5181 2.9624 52.1958C2.80127 51.8735 2.7207 51.5049 2.7207 51.0898C2.7207 50.6748 2.80615 50.2915 2.97705 49.9399C3.14795 49.5884 3.39209 49.2832 3.70947 49.0244C4.03174 48.7607 4.41504 48.5557 4.85938 48.4092C5.30371 48.2627 5.79932 48.1895 6.34619 48.1895C7.14697 48.1895 7.82568 48.3433 8.38232 48.6509C8.94385 48.9536 9.37109 49.3516 9.66406 49.8447C9.95703 50.333 10.1035 50.8555 10.1035 51.4121H8.69727C8.69727 51.0117 8.61182 50.6577 8.44092 50.3501C8.27002 50.0376 8.01123 49.7935 7.66455 49.6177C7.31787 49.437 6.87842 49.3467 6.34619 49.3467C5.84326 49.3467 5.42822 49.4224 5.10107 49.5737C4.77393 49.7251 4.52979 49.9302 4.36865 50.189C4.2124 50.4478 4.13428 50.7432 4.13428 51.0752C4.13428 51.2998 4.18066 51.5049 4.27344 51.6904C4.37109 51.8711 4.52002 52.0396 4.72021 52.1958C4.92529 52.3521 5.18408 52.4961 5.49658 52.6279C5.81396 52.7598 6.19238 52.8867 6.63184 53.0088C7.2373 53.1797 7.75977 53.3701 8.19922 53.5801C8.63867 53.79 9 54.0269 9.2832 54.2905C9.57129 54.5493 9.78369 54.8447 9.92041 55.1768C10.062 55.5039 10.1328 55.875 10.1328 56.29C10.1328 56.7246 10.0449 57.1177 9.86914 57.4692C9.69336 57.8208 9.44189 58.1211 9.11475 58.3701C8.7876 58.6191 8.39453 58.812 7.93555 58.9487C7.48145 59.0806 6.97363 59.1465 6.41211 59.1465C5.91895 59.1465 5.43311 59.0781 4.95459 58.9414C4.48096 58.8047 4.04883 58.5996 3.6582 58.3262C3.27246 58.0527 2.9624 57.7158 2.72803 57.3154C2.49854 56.9102 2.38379 56.4414 2.38379 55.9092H3.79004C3.79004 56.2754 3.86084 56.5903 4.00244 56.854C4.14404 57.1128 4.33691 57.3276 4.58105 57.4985C4.83008 57.6694 5.11084 57.7964 5.42334 57.8794C5.74072 57.9575 6.07031 57.9966 6.41211 57.9966C6.90527 57.9966 7.32275 57.9282 7.66455 57.7915C8.00635 57.6548 8.26514 57.4595 8.44092 57.2056C8.62158 56.9517 8.71191 56.6514 8.71191 56.3047ZM18.3726 55.6089H19.7788C19.7056 56.2827 19.5127 56.8857 19.2002 57.418C18.8877 57.9502 18.4458 58.3726 17.8745 58.6851C17.3032 58.9927 16.5903 59.1465 15.7358 59.1465C15.1108 59.1465 14.542 59.0293 14.0293 58.7949C13.5215 58.5605 13.0845 58.2285 12.7183 57.7988C12.3521 57.3643 12.0688 56.8442 11.8687 56.2388C11.6733 55.6284 11.5757 54.9497 11.5757 54.2026V53.1406C11.5757 52.3936 11.6733 51.7173 11.8687 51.1118C12.0688 50.5015 12.3545 49.979 12.7256 49.5444C13.1016 49.1099 13.5532 48.7754 14.0806 48.541C14.6079 48.3066 15.2012 48.1895 15.8604 48.1895C16.666 48.1895 17.3472 48.3408 17.9038 48.6436C18.4604 48.9463 18.8926 49.3662 19.2002 49.9033C19.5127 50.4355 19.7056 51.0532 19.7788 51.7563H18.3726C18.3042 51.2583 18.1772 50.8311 17.9917 50.4746C17.8062 50.1133 17.5425 49.835 17.2007 49.6396C16.8589 49.4443 16.4121 49.3467 15.8604 49.3467C15.3867 49.3467 14.9692 49.437 14.6079 49.6177C14.2515 49.7983 13.9512 50.0547 13.707 50.3867C13.4678 50.7188 13.2871 51.1167 13.165 51.5806C13.043 52.0444 12.9819 52.5596 12.9819 53.126V54.2026C12.9819 54.7251 13.0356 55.2158 13.1431 55.6748C13.2554 56.1338 13.4238 56.5366 13.6484 56.8833C13.873 57.23 14.1587 57.5034 14.5054 57.7036C14.8521 57.8989 15.2622 57.9966 15.7358 57.9966C16.3364 57.9966 16.8149 57.9014 17.1714 57.7109C17.5278 57.5205 17.7964 57.2471 17.9771 56.8906C18.1626 56.5342 18.2944 56.1069 18.3726 55.6089ZM21.7051 48.3359H25.2354C26.0361 48.3359 26.7124 48.458 27.2642 48.7021C27.8208 48.9463 28.2432 49.3076 28.5312 49.7861C28.8242 50.2598 28.9707 50.8433 28.9707 51.5366C28.9707 52.0249 28.8706 52.4717 28.6704 52.877C28.4751 53.2773 28.1919 53.6191 27.8208 53.9023C27.4546 54.1807 27.0151 54.3882 26.5024 54.5249L26.1069 54.6787H22.7891L22.7744 53.5288H25.2793C25.7871 53.5288 26.2095 53.4409 26.5464 53.2651C26.8833 53.0845 27.1372 52.8428 27.3081 52.54C27.479 52.2373 27.5645 51.9028 27.5645 51.5366C27.5645 51.1265 27.4839 50.7676 27.3228 50.46C27.1616 50.1523 26.9077 49.9155 26.561 49.7495C26.2192 49.5786 25.7773 49.4932 25.2354 49.4932H23.1187V59H21.7051V48.3359ZM27.938 59L25.3452 54.166L26.8174 54.1587L29.4468 58.9121V59H27.938ZM39.1587 53.3311V54.0049C39.1587 54.8057 39.0586 55.5234 38.8584 56.1582C38.6582 56.793 38.3701 57.3325 37.9941 57.7769C37.6182 58.2212 37.1665 58.5605 36.6392 58.7949C36.1167 59.0293 35.5308 59.1465 34.8813 59.1465C34.2515 59.1465 33.6729 59.0293 33.1455 58.7949C32.623 58.5605 32.1689 58.2212 31.7832 57.7769C31.4023 57.3325 31.1069 56.793 30.897 56.1582C30.687 55.5234 30.582 54.8057 30.582 54.0049V53.3311C30.582 52.5303 30.6846 51.8149 30.8896 51.1851C31.0996 50.5503 31.395 50.0107 31.7759 49.5664C32.1567 49.1172 32.6084 48.7754 33.1309 48.541C33.6582 48.3066 34.2368 48.1895 34.8667 48.1895C35.5161 48.1895 36.1021 48.3066 36.6245 48.541C37.1519 48.7754 37.6035 49.1172 37.9795 49.5664C38.3604 50.0107 38.6509 50.5503 38.8511 51.1851C39.0562 51.8149 39.1587 52.5303 39.1587 53.3311ZM37.7598 54.0049V53.3164C37.7598 52.6816 37.6938 52.1201 37.562 51.6318C37.4351 51.1436 37.2471 50.7334 36.998 50.4014C36.749 50.0693 36.4438 49.8179 36.0825 49.647C35.7261 49.4761 35.3208 49.3906 34.8667 49.3906C34.4272 49.3906 34.0293 49.4761 33.6729 49.647C33.3213 49.8179 33.0186 50.0693 32.7646 50.4014C32.5156 50.7334 32.3228 51.1436 32.186 51.6318C32.0493 52.1201 31.981 52.6816 31.981 53.3164V54.0049C31.981 54.6445 32.0493 55.2109 32.186 55.7041C32.3228 56.1924 32.5181 56.605 32.772 56.9419C33.0308 57.2739 33.3359 57.5254 33.6875 57.6963C34.0439 57.8672 34.4419 57.9526 34.8813 57.9526C35.3403 57.9526 35.748 57.8672 36.1045 57.6963C36.4609 57.5254 36.7612 57.2739 37.0054 56.9419C37.2544 56.605 37.4424 56.1924 37.5693 55.7041C37.6963 55.2109 37.7598 54.6445 37.7598 54.0049ZM47.7427 57.8501V59H42.4106V57.8501H47.7427ZM42.689 48.3359V59H41.2754V48.3359H42.689ZM55.8286 57.8501V59H50.4966V57.8501H55.8286ZM50.7749 48.3359V59H49.3613V48.3359H50.7749Z" fill="white"/>
<defs>
<clipPath id="clip0_1_319">
<rect width="33" height="32" fill="white" transform="translate(10)"/>
</clipPath>
</defs>
</svg>
